<svg width="498" height="507" viewBox="0 0 498 507" fill="none" xmlns="http://www.w3.org/2000/svg">
<path d="M0 341.908L246.094 199.875L497.986 346.407L254.012 490.863L0 341.908Z" fill="#DDE57A"/>
<path d="M0 358.089L246.094 216.013L497.986 362.545L254.012 507L0 358.089Z" fill="#DDE57A"/>
<path d="M84.7718 99.5916V333.255L257.777 434.102V200.308L84.7718 99.5916Z" fill="#FFEEDE"/>
<path d="M215.586 409.485V288.911L253.104 310.802V431.376L215.586 409.485Z" fill="url(#paint0_linear)"/>
<path d="M219.697 356.228V299.207L248.993 315.777V372.755L219.697 356.228Z" fill="#B9B5AC"/>
<path d="M219.697 377.643V363.929L226.751 367.909V381.58L219.697 377.643Z" fill="#D6D2CE"/>
<path d="M221.99 300.505V354.973L219.697 356.228V299.207L221.99 300.505Z" fill="#9D3C22"/>
<path d="M221.99 354.974L248.993 370.375V372.755L219.697 356.228L221.99 354.974Z" fill="#F59855"/>
<path d="M219.697 363.929L220.649 363.366L227.702 367.347L226.75 367.909L219.697 363.929Z" fill="#EFEEED"/>
<path d="M226.75 381.58L227.702 381.018V367.347L226.75 367.909V381.58Z" fill="#AAA6A2"/>
<path d="M257.777 200.308V434.102L426.628 334.597V100.716L257.777 200.308Z" fill="#C1BDB1"/>
<path d="M84.7718 241.105V359.213L172.183 410.177V292.026L84.7718 241.105Z" fill="#DA7136"/>
<path d="M168.938 294.362L88.0173 247.508V280.561L168.938 327.372V294.362Z" fill="#929292"/>
<path d="M88.0173 280.561V314.523L168.938 361.42V327.372L88.0173 280.561Z" fill="#B9B5AC"/>
<path d="M172.183 410.177L211.475 407.106V288.911L172.183 292.026V410.177Z" fill="#CE6028"/>
<path d="M175.039 295.79V361.42L208.706 358.737V293.151L175.039 295.79Z" fill="#B9B5AC"/>
<path d="M88.0173 314.523L91.782 313.008L168.938 357.223V361.42L88.0173 314.523Z" fill="#F59855"/>
<path d="M107.404 258.627V325.684L110.995 327.761V260.747L107.404 258.627Z" fill="#DA7136"/>
<path d="M91.7821 313.008V249.671L88.0173 247.508V314.523L91.7821 313.008Z" fill="#9D3C22"/>
<path d="M110.995 327.761L114.76 326.117V262.953L110.995 260.747V327.761Z" fill="#9D3C22"/>
<path d="M137.608 276.235V343.249L141.243 345.369V278.311L137.608 276.235Z" fill="#DA7136"/>
<path d="M141.243 345.369L144.965 343.725V280.561L141.243 278.311V345.369Z" fill="#9D3C22"/>
<path d="M208.706 358.737L207.018 357.007V293.151H208.706V358.737Z" fill="#9D3C22"/>
<path d="M183.434 400.789V400.313C183.434 398.15 182.612 396.203 181.097 394.776C179.583 393.348 177.549 392.656 175.385 392.785L174.909 392.829V375.35L175.342 375.307C179.843 375.004 183.477 371.067 183.477 366.611V366.179L200.397 364.967V365.443C200.397 367.606 201.219 369.553 202.734 370.981C204.249 372.408 206.282 373.101 208.446 372.971L208.922 372.928V390.406L208.489 390.449C203.989 390.752 200.354 394.689 200.354 399.145V399.578L183.434 400.789ZM175.905 391.877C178.068 391.877 180.102 392.656 181.66 394.127C183.261 395.598 184.17 397.631 184.3 399.837L199.402 398.756C199.618 394.127 203.34 390.146 207.97 389.584V373.923C205.72 373.966 203.643 373.187 202.042 371.673C200.44 370.202 199.532 368.169 199.402 365.962L184.3 367.044C184.083 371.673 180.362 375.653 175.732 376.216V391.877C175.818 391.877 175.861 391.877 175.905 391.877Z" fill="#A54A24"/>
<path d="M176.511 359.213V295.66L175.039 295.79V361.42L176.511 359.213Z" fill="#9D3C22"/>
<path d="M215.586 288.911L218.442 287.224L256.436 308.812L253.104 310.802L215.586 288.911Z" fill="#9D3C22"/>
<path d="M84.7718 188.151L257.777 288.911L215.456 337.236L42.5374 236.476L84.7718 188.151Z" fill="#FFF6ED"/>
<path d="M42.5374 236.476V244.523C42.5374 250.883 45.9126 256.766 51.4083 259.968C57.0771 263.256 64.1739 259.189 64.1739 252.656V249.066L42.5374 236.476Z" fill="#F57F21"/>
<path d="M64.1739 249.066V257.112C64.1739 263.472 67.5492 269.356 73.0449 272.557C78.7136 275.845 85.8104 271.779 85.8104 265.246V261.655L64.1739 249.066Z" fill="#FFEEDF"/>
<path d="M85.8104 261.742V269.789C85.8104 276.148 89.1857 282.032 94.6813 285.233C100.35 288.521 107.447 284.455 107.447 277.922V274.331L85.8104 261.742Z" fill="#F57F21"/>
<path d="M107.404 274.331V282.378C107.404 288.738 110.779 294.622 116.275 297.823C121.943 301.111 129.04 297.044 129.04 290.512V286.921L107.404 274.331Z" fill="#FFEEDF"/>
<path d="M129.04 286.877V294.924C129.04 301.284 132.415 307.168 137.911 310.369C143.58 313.657 150.677 309.591 150.677 303.058V299.467L129.04 286.877Z" fill="#F57F21"/>
<path d="M150.677 299.467V307.514C150.677 313.874 154.052 319.757 159.547 322.959C165.216 326.247 172.313 322.18 172.313 315.647V312.057L150.677 299.467Z" fill="#FFEEDF"/>
<path d="M172.313 312.186V320.233C172.313 326.593 175.688 332.477 181.184 335.678C186.853 338.966 193.95 334.899 193.95 328.367V324.776L172.313 312.186Z" fill="#F57F21"/>
<path d="M193.95 324.776V332.823C193.95 339.183 197.325 345.066 202.821 348.268C208.489 351.556 215.586 347.489 215.586 340.956V337.365L193.95 324.776Z" fill="#FFEEDF"/>
<path d="M64.1738 249.066L106.452 200.784L84.7718 188.151L42.5374 236.476L64.1738 249.066Z" fill="#F79646"/>
<path d="M107.404 274.331L149.681 226.05L128.045 213.417L85.8104 261.742L107.404 274.331Z" fill="#F79646"/>
<path d="M150.806 299.51L193.084 251.229L171.404 238.639L129.17 286.964L150.806 299.51Z" fill="#F79646"/>
<path d="M193.863 324.603L236.141 276.321L214.504 263.732L172.27 312.057L193.863 324.603Z" fill="#F79646"/>
<path d="M175.039 361.42L176.511 359.213L207.018 357.007L208.706 358.737L175.039 361.42Z" fill="#F59855"/>
<path d="M253.104 310.802L256.436 308.812V429.429L253.104 431.376V310.802Z" fill="#9D3C22"/>
<path d="M97.1046 358.391L98.4894 357.569L156.865 391.141C156.865 391.141 156.605 391.877 156.648 392.785L97.1046 358.391Z" fill="#F59855"/>
<path d="M91.0897 333.299V346.278L89.9213 347.056V333.169C89.9213 333.126 90.8301 333.169 91.0897 333.299Z" fill="#9D3C22"/>
<path d="M89.9213 347.056L91.133 346.278C91.133 346.278 96.5421 349.09 98.4894 357.569L97.1046 358.391C97.1046 358.391 96.9748 351.512 89.9213 347.056Z" fill="#CE6A28"/>
<path d="M215.586 337.365L257.777 312.489V288.911L215.586 337.365Z" fill="#E77B29"/>
<path d="M100.264 121.742V187.502L253.71 276.97V211.081L100.264 121.742Z" fill="#C8C7C2"/>
<path d="M89.9213 115.729V181.532L243.367 270.957V205.067L89.9213 115.729Z" fill="#D97537"/>
<path d="M243.367 205.067L248.127 202.082V268.231L243.367 270.957V205.067Z" fill="#9D3C22"/>
<path d="M89.9213 115.729L95.3305 112.527L248.127 202.082L243.367 205.067L89.9213 115.729Z" fill="#F59855"/>
<path d="M257.777 200.308V183.479L399.453 99.5916L426.628 100.716L257.777 200.308Z" fill="#FFFFFC"/>
<path d="M257.777 183.479L111.601 97.7745L84.7718 99.5916L257.777 200.308V183.479Z" fill="#FFFFFC"/>
<path d="M111.601 97.7745L253.666 14.8392V0L84.7718 99.5916L111.601 97.7745Z" fill="#FFFFFC"/>
<path d="M253.666 14.8392L399.453 99.5916L426.628 100.716L253.666 0V14.8392Z" fill="#FFFFFC"/>
<path d="M253.666 14.8392V31.6253L125.275 105.778L111.601 97.7746L253.666 14.8392Z" fill="#C3C0B4"/>
<path d="M253.666 31.6253L385.086 108.114L399.453 99.5916L253.666 14.8392V31.6253Z" fill="#FFEFDF"/>
<path d="M125.275 105.778L253.666 31.6253L385.086 108.114L257.777 183.479L125.275 105.778Z" fill="#BCB1AF"/>
<path d="M265.61 38.5906L137.608 113.003L125.275 105.778L253.666 31.6253L265.61 38.5906Z" fill="#99918C"/>
<path opacity="0.7" d="M42.5374 236.476L215.586 337.365V338.577L42.5374 238.639V236.476Z" fill="#FFFFFC"/>
<path d="M157.124 393.564L96.6718 358.651V358.391C96.6718 354.584 93.5562 349.652 89.7049 347.446L89.4885 347.316V332.347L90.1809 332.736C92.1282 333.861 93.9456 334.077 95.1573 333.385C96.1526 332.823 96.6718 331.655 96.6718 330.097V329.319L157.124 364.232V364.491C157.124 368.299 160.24 373.231 164.091 375.437L164.308 375.567V390.536L163.615 390.146C161.668 389.022 159.85 388.805 158.639 389.497C157.644 390.06 157.124 391.228 157.124 392.785V393.564ZM97.5373 358.132L156.215 392.007C156.389 390.493 157.038 389.324 158.163 388.675C159.504 387.897 161.408 387.983 163.399 388.978V376.086C159.504 373.706 156.345 368.731 156.215 364.751L97.5373 330.833C97.3642 332.347 96.7151 333.515 95.59 334.164C94.2486 334.943 92.3445 334.856 90.354 333.861V346.754C94.2486 349.133 97.4075 354.108 97.5373 358.132Z" fill="#B95F28"/>
<path d="M257.777 434.102V413.984L430.22 314.739V332.52L257.777 434.102Z" fill="#C1BFB3"/>
<path d="M430.22 314.739L426.628 313.268L257.777 410.177V413.984L430.22 314.739Z" fill="#FFEEDE"/>
<path d="M385.865 337.322H395.731V392.526C395.731 395.251 393.525 397.458 390.798 397.458C388.072 397.458 385.865 395.251 385.865 392.526V337.322Z" fill="url(#paint1_linear)"/>
<path d="M378.985 295.097C375.696 308.596 384.005 319.368 395.299 326.117C406.55 332.693 423.34 325.338 423.989 315.95C423.989 315.474 423.989 315.042 423.989 314.523C423.989 308.249 422.085 302.279 418.969 297.304C422.258 307.644 417.411 312.489 414.599 313.744C411.916 314.999 402.352 317.032 394.39 307.168C386.385 297.304 392.962 289.949 397.333 288.046C401.703 286.142 410.315 288.521 410.618 288.695C406.55 285.753 401.703 283.849 396.337 283.07C395.299 282.854 382.144 282.378 378.985 295.097Z" fill="#637D38"/>
<path d="M397.636 288.002C393.265 289.906 386.514 297.217 394.693 307.125C402.699 316.988 412.219 314.955 414.902 313.701C417.584 312.446 422.561 307.427 419.272 297.261C417.065 293.8 414.252 290.987 410.964 288.651C410.488 288.651 401.833 286.142 397.636 288.002ZM415.161 298.212C420.181 306.649 409.968 309.158 406.853 308.379C403.694 307.6 397.636 303.058 397.765 297.909C397.765 292.891 405.425 292.285 405.425 292.285C405.425 292.285 411.569 292.069 415.161 298.212Z" fill="#78A03F"/>
<path d="M376.302 331.871C356.872 312.446 369.725 292.588 370.33 291.593C364.359 297.39 360.637 305.351 360.637 314.436C360.637 331.958 374.917 346.234 392.443 346.234C401.357 346.234 409.363 342.514 415.161 336.673C406.68 340.783 390.236 345.802 376.302 331.871Z" fill="#405224"/>
<path d="M395.429 326.074C384.178 319.498 375.869 308.552 379.115 295.054C382.274 282.205 395.429 282.811 396.64 282.984C395.212 282.854 393.828 282.681 392.4 282.681C383.788 282.681 376.086 286.142 370.33 291.593C369.681 292.372 357.045 312.403 376.302 331.871C390.236 345.802 406.68 340.783 415.118 336.717C420.44 331.222 423.729 324.04 424.032 316.037C423.296 325.252 406.55 332.65 395.429 326.074Z" fill="#4C6730"/>
<path d="M397.765 297.91C397.765 303.101 403.737 307.6 406.853 308.379C410.012 309.158 420.008 306.649 415.161 298.212C411.569 292.242 405.468 292.242 405.468 292.242C405.468 292.242 397.765 292.718 397.765 297.91Z" fill="url(#paint2_radial)"/>
<path d="M283.005 397.025H292.872V452.229C292.872 454.954 290.665 457.161 287.939 457.161C285.212 457.161 283.005 454.954 283.005 452.229V397.025Z" fill="url(#paint3_linear)"/>
<path d="M276.125 354.757C272.836 368.255 281.145 379.028 292.439 385.777C303.69 392.353 320.48 384.998 321.129 375.61C321.129 375.134 321.129 374.701 321.129 374.182C321.129 367.909 319.225 361.939 316.109 356.964C319.398 367.303 314.551 372.149 311.739 373.404C309.056 374.658 299.492 376.692 291.53 366.828C283.525 356.964 290.102 349.609 294.473 347.705C298.843 345.802 307.455 348.181 307.757 348.354C303.69 345.412 298.843 343.509 293.477 342.73C292.396 342.557 279.241 342.081 276.125 354.757Z" fill="#637D38"/>
<path d="M294.732 347.705C290.362 349.609 283.611 356.92 291.79 366.828C299.795 376.692 309.315 374.658 311.998 373.404C314.681 372.149 319.658 367.13 316.369 356.964C314.162 353.503 311.349 350.691 308.06 348.354C307.584 348.311 298.973 345.845 294.732 347.705ZM312.301 357.872C317.321 366.308 307.108 368.818 303.993 368.039C300.834 367.26 294.776 362.718 294.905 357.569C294.905 352.551 302.565 351.945 302.565 351.945C302.565 351.945 308.666 351.772 312.301 357.872Z" fill="#78A03F"/>
<path d="M273.442 391.531C254.012 372.106 266.865 352.248 267.47 351.253C261.499 357.05 257.777 365.011 257.777 374.096C257.777 391.617 272.057 405.894 289.583 405.894C298.497 405.894 306.503 402.174 312.301 396.333C303.82 400.486 287.376 405.461 273.442 391.531Z" fill="#405224"/>
<path d="M292.569 385.777C281.318 379.201 273.009 368.255 276.255 354.757C279.414 341.908 292.569 342.514 293.78 342.687C292.352 342.557 290.968 342.384 289.54 342.384C280.928 342.384 273.226 345.845 267.47 351.296C266.821 352.075 254.186 372.106 273.442 391.574C287.376 405.505 303.82 400.486 312.258 396.42C317.581 390.925 320.869 383.743 321.172 375.74C320.437 384.955 303.69 392.31 292.569 385.777Z" fill="#4C6730"/>
<path d="M294.905 357.569C294.905 362.761 300.877 367.26 303.993 368.039C307.152 368.818 317.148 366.308 312.301 357.872C308.709 351.902 302.608 351.902 302.608 351.902C302.608 351.902 294.905 352.378 294.905 357.569Z" fill="url(#paint4_radial)"/>
<path d="M0 341.908V358.088L254.012 507V490.863L0 341.908Z" fill="#F5F19B"/>
<path d="M254.012 507L497.986 362.545V346.407L254.012 490.863V507Z" fill="#C3C64E"/>
<defs>
<linearGradient id="paint0_linear" x1="234.33" y1="360.126" x2="236.602" y2="292.398" gradientUnits="userSpaceOnUse">
<stop stop-color="#DA7136"/>
<stop offset="0.6263" stop-color="#CB6531"/>
<stop offset="1" stop-color="#A24425"/>
</linearGradient>
<linearGradient id="paint1_linear" x1="385.825" y1="367.399" x2="395.705" y2="367.399" gradientUnits="userSpaceOnUse">
<stop offset="0.030466" stop-color="#F58321"/>
<stop offset="0.4283" stop-color="#C06E2B"/>
<stop offset="1" stop-color="#4A2E16"/>
</linearGradient>
<radialGradient id="paint2_radial" cx="0" cy="0" r="1" gradientUnits="userSpaceOnUse" gradientTransform="translate(408.344 299.609) scale(9.85617 9.85389)">
<stop offset="0.030466" stop-color="white"/>
<stop offset="0.4283" stop-color="#C6DA46"/>
<stop offset="1" stop-color="#C1D833"/>
</radialGradient>
<linearGradient id="paint3_linear" x1="282.95" y1="427.081" x2="292.831" y2="427.081" gradientUnits="userSpaceOnUse">
<stop offset="0.030466" stop-color="#F58321"/>
<stop offset="0.4283" stop-color="#C06E2B"/>
<stop offset="1" stop-color="#4A2E16"/>
</linearGradient>
<radialGradient id="paint4_radial" cx="0" cy="0" r="1" gradientUnits="userSpaceOnUse" gradientTransform="translate(305.469 359.292) scale(9.85615 9.85389)">
<stop offset="0.030466" stop-color="white"/>
<stop offset="0.4283" stop-color="#C6DA46"/>
<stop offset="1" stop-color="#C1D833"/>
</radialGradient>
</defs>
</svg>
